<?xml version="1.0" encoding="UTF-8" standalone="no"?>
<svg
   xmlns:dc="http://purl.org/dc/elements/1.1/"
   xmlns:cc="http://creativecommons.org/ns#"
   xmlns:rdf="http://www.w3.org/1999/02/22-rdf-syntax-ns#"
   xmlns:svg="http://www.w3.org/2000/svg"
   xmlns="http://www.w3.org/2000/svg"
   id="svg8"
   version="1.1"
   viewBox="0 0 210 297"
   height="297mm"
   width="210mm">
  <defs
     id="defs2" />
  <metadata
     id="metadata5">
    <rdf:RDF>
      <cc:Work
         rdf:about="">
        <dc:format>image/svg+xml</dc:format>
        <dc:type
           rdf:resource="http://purl.org/dc/dcmitype/StillImage" />
        <dc:title></dc:title>
      </cc:Work>
    </rdf:RDF>
  </metadata>
  <g
     id="g3832"
     style="display:inline">
    <g
       id="g3927">
      <path
         id="path3822"
         d="m 135.98732,252.93956 c -5.73816,-7.77903 -13.7582,-2.06741 -21.21398,-1.98378 -8.1479,-3.01111 -16.456064,-2.98993 -24.41158,-4.93217 -8.404778,-2.32296 -4.7423,-18.25237 -16.491824,-12.8023 -5.174364,-4.97598 -3.104879,-14.95244 -9.214048,-18.804 -2.260041,-7.56215 -10.85709,-14.69724 -15.099267,-22.43236 -4.865091,-6.25308 -0.755555,-14.31757 -4.913106,-20.52176 -2.339893,-10.26383 -12.527641,-14.92875 -16.892951,-23.89239 -2.914,-6.16075 -9.588995,-12.85362 -6.651203,-17.50067 -7.938115,-0.81108 -3.106727,-11.26128 -7.338683,-16.62181 C 12.321873,104.52213 8.7035144,95.91226 8.4909473,86.834129 7.7831827,76.810266 18.359525,79.25745 22.317232,85.981358 c 3.724827,0.04225 7.729199,1.407399 10.517617,-1.865167 7.617374,-1.403629 12.691413,2.472018 18.032798,-2.832535 10.64919,3.77759 17.936033,13.379216 27.434288,19.011004 7.508625,-0.16541 17.797503,-2.503645 23.758055,-4.496104 -8.990797,-2.720635 -0.51047,-17.742328 -0.70198,-24.935542 3.66339,-5.909218 -6.026061,1.839377 -4.899729,-6.285652 0.816724,-4.6531 7.075379,-9.148024 0.759264,-5.612301 1.274548,-6.354392 18.446185,-6.234455 5.692445,-10.224957 -7.304464,-5.276723 -16.172372,0.889893 -18.109881,6.525627 -3.857567,-9.508823 7.195585,-15.000939 14.062138,-20.937135 8.016133,-3.572581 18.601803,-3.441216 25.729153,2.085449 3.34771,3.964385 2.38524,14.640948 7.74749,5.602326 7.61113,-8.632993 20.79269,-1.302982 27.03904,4.993494 10.10001,5.617007 -9.1936,-1.208648 -10.04019,6.186541 -6.13796,6.942986 -19.18408,8.683916 -20.82754,19.043547 7.48934,-3.142213 20.38959,-3.240661 15.89381,8.610587 0.67845,5.017024 3.34901,7.674744 5.73226,1.331165 -1.5956,4.723794 14.66202,-2.512544 4.71285,2.006457 -5.90733,9.556307 8.21329,13.714352 13.4027,12.152009 7.70645,2.318031 16.02999,4.016539 23.04912,8.192999 7.35009,1.87603 15.15339,10.18858 14.30186,17.282 -1.79197,6.15264 -7.57728,13.84062 -3.65785,19.88606 -2.32276,4.47054 5.05418,9.08046 2.70739,14.58993 0.78587,7.07248 -0.85975,11.58662 -6.24945,16.07562 1.34756,3.75405 4.45215,9.98055 -0.14431,7.40319 -0.98868,6.5177 -1.78691,13.99032 -3.9499,21.06294 -3.12689,5.47194 -7.05654,2.42225 -7.86364,9.94832 -1.03734,8.26175 -0.78331,16.53499 -7.66473,22.82075 -1.91014,10.07169 -12.34097,10.34723 -18.59955,11.7715 -4.39856,-1.70622 -11.69584,7.36142 -18.71491,4.70421 -4.2233,-2.44779 0.1184,5.81341 -5.47853,2.86187 z m 27.33077,-132.82905 c 0.0877,-3.85811 -3.88482,2.71458 0,0 z m -4.1163,-1.19168 c -0.81685,-2.13291 -3.17858,1.88232 0,0 z m 11.04786,-14.70037 c -1.01311,-1.29765 -2.14484,1.46634 0,0 z M 134.82051,87.712352 c -1.13003,0.743418 -0.42875,1.681935 0,0 z m -20.14576,-3.687686 c 1.22347,-4.445531 -4.2373,1.123137 0,0 z m -1.06283,-0.906478 c 0.51497,-1.402525 0.85728,1.010511 0,0 z m 29.79845,-1.046442 c -0.74459,-4.441471 -2.29137,3.480006 0,0 z M 116.39606,74.7263 c 0.92249,-4.227967 -2.0115,1.363159 0,0 z m 21.07723,-1.018688 c -1.862,-0.09815 0.60115,1.749658 0,0 z m 2.15003,-0.27183 c -0.94191,-2.848716 -0.68805,3.245063 0,0 z m -21.16708,-4.288506 c 0.46323,-9.595036 -10.69762,-9.235571 -14.54023,-2.500742 4.90559,0.120264 10.11102,1.963542 14.54023,2.500742 z"
         style="fill:#b59469;stroke-width:0.2796925" />
      <path
         id="path3824"
         d="m 136.92532,252.11329 c -2.94037,-5.27813 -11.6597,-2.92165 -14.73705,-5.47303 -2.17195,-2.78723 -6.26847,7.29802 -11.79282,1.52291 -8.13962,-1.54464 -18.194492,-0.83272 -24.109047,-6.60191 -2.566088,-5.3306 -4.588644,-12.52121 -12.390822,-9.41167 -4.495292,-5.27671 -3.288713,-15.28119 -9.636697,-18.78167 -2.059014,-9.07998 -12.963528,-15.21932 -15.235517,-24.89757 -3.276329,-7.04814 -0.281272,-15.47436 -6.089566,-22.56053 -3.772798,-8.55888 -13.77111,-12.6162 -16.369002,-22.18077 -2.529975,-4.85704 -7.613291,-8.56646 -3.8607,-12.8241 -6.285602,-1.03026 -4.96062,-5.21253 -5.735961,-9.98348 -3.762472,-9.13493 -4.758993,-19.20252 -7.3886395,-28.663731 -2.5266802,-6.748753 2.1189445,-17.795622 8.7517765,-8.387104 5.453523,8.166825 15.405897,-0.406549 19.83362,1.448769 -6.880461,3.825583 6.040181,7.088489 0.819016,11.843946 -4.600108,7.19008 6.884915,8.63899 7.361995,6.33731 3.368217,-4.047139 17.915257,1.29232 22.322995,6.08306 7.143054,5.65784 -12.257963,5.3447 -1.149448,6.12173 6.365841,-2.21511 5.089738,0.69731 4.822872,3.78068 6.605338,-4.19664 15.123404,-6.41037 21.05519,0.59442 6.541804,2.37238 3.334852,-8.51418 7.330465,0.30269 2.69209,1.86201 -2.913091,-10.58417 2.88853,-3.1726 2.48769,3.9523 10.09927,0.31282 9.80513,4.18763 5.37223,-1.31896 6.58885,6.83079 10.92951,1.42599 9.43555,-2.8163 2.80351,11.94444 5.26854,17.43821 2.31306,4.99277 3.1448,9.21935 -0.37009,6.41553 -4.69971,-13.86016 0.67857,12.26201 -3.11652,2.60684 -0.0242,-5.72594 -4.11741,-16.03352 -6.47293,-4.7473 -3.49156,6.02832 -1.5508,17.9431 4.75357,14.10362 0.0329,-3.35148 7.01192,5.64126 3.63125,-1.26047 -0.74723,-5.58691 4.91987,10.41259 2.84436,-0.86024 2.7664,5.64698 5.10356,3.15484 4.42535,6.95678 4.84691,-3.10304 -1.30761,3.30648 3.97421,3.00722 6.1484,2.57221 13.76444,3.85588 20.19266,9.08118 8.30772,5.41101 9.0111,8.53306 9.3949,16.81344 1.3432,9.33038 9.81279,13.46918 11.56841,19.6593 -0.31048,5.17376 -8.70172,4.58522 -4.62233,12.02248 2.54071,6.33128 1.02877,10.55948 -3.62101,14.37935 0.55957,7.19645 -2.36716,-5.20411 -5.44789,1.39369 9.27985,5.15604 -7.82797,1.2459 -10.59374,4.77824 -5.77447,4.03384 -12.88411,4.32105 -17.94751,5.54267 -0.19137,0.17302 -0.16131,2.68985 -1.28706,1.95849 z m -19.18211,-4.91952 c -1.65176,-1.53087 -0.70508,1.53113 0,0 z m 56.94971,-19.40196 c 0.37277,-4.94105 -2.47969,-2.47132 -0.43655,0.81844 z m -1.04157,-4.49426 c -0.48954,0.27953 0.45398,1.54021 0,0 z m -15.00894,-8.14884 c -1.86686,-2.79228 -1.61245,0.67452 0,0 z m 13.55808,-3.01038 c -2.38938,-7.12138 -2.24564,-3.51881 0.0337,1.1003 z m -1.90507,-1.5153 c -2.39806,-4.73084 -8.59025,-11.63159 -3.06704,-2.7698 0.71032,0.64691 2.01269,4.13617 3.06704,2.7698 z m 0.98443,-8.85248 c -1.23075,-0.23919 0.86162,1.26644 0,0 z M 85.790863,187.05386 c 4.051114,-4.71051 -2.23371,-0.68687 -0.951397,1.16384 z m 6.125616,-4.78146 c 5.578885,-6.77113 -1.79439,-2.99843 -2.657095,0.85429 0.909452,0.69563 2.03939,-0.28441 2.657095,-0.85429 z m 9.214361,-6.07223 c 6.83446,-4.12481 17.19148,-4.47615 19.51469,-9.17052 -6.74901,-5.31333 -17.87822,2.03139 -22.416702,7.19764 -3.49646,3.84284 0.740015,2.47812 2.902012,1.97288 z m -4.912302,-4.55833 c -0.924634,-1.01982 -0.876973,1.56153 0,0 z M 117.42421,154.2135 c -1.03417,-3.6612 -1.16134,2.55697 0,0 z m 7.6551,-25.60585 c -1.2137,-2.48697 -1.6252,0.86244 0,0 z m -58.467607,-5.21594 c 6.313876,-2.51728 0.490174,-2.35531 -0.734663,0.40523 z m 36.371897,-5.12134 c -1.51066,-2.22701 -1.51822,0.96076 0,0 z m -62.933682,-9.7698 c 10.013627,2.38367 4.157724,-5.81545 -1.455715,-1.54782 -1.425059,1.06205 0.107511,3.05222 1.455715,1.54782 z m 13.105448,-3.69025 c -2.920488,-3.15334 -7.686003,1.77995 0,0 z M 178.50058,230.49963 c 1.49129,-1.33245 -0.50125,1.4528 0,0 z m 3.99109,-7.34193 c 0.5813,-5.80829 2.86377,-7.45633 1.59544,-0.7485 1.3873,1.85584 -3.30246,5.17793 -1.59544,0.7485 z m -4.9192,-4.72726 c -1.06701,-2.67278 2.13456,-0.41507 0,0 z m 7.92042,-9.13869 c 1.61152,-5.48606 1.78033,2.31171 0,0 z m 5.19686,-5.66001 c -1.45007,-5.73651 4.8603,-15.21688 3.94321,-4.63179 -0.59402,0.79044 -2.92769,5.51713 -3.94321,4.63179 z m 4.14484,-13.05822 c 4.9645,-6.65565 -2.30044,6.04726 0,0 z m -16.20906,-0.60561 c 5.85617,-1.39733 -5.29293,-8.08511 -3.26553,-14.0989 -0.24432,-3.57965 -10.14811,-9.70535 -5.00451,-3.12588 -6.80339,-8.11068 -10.13242,-0.67681 -17.51686,-8.24813 -2.77189,1.67397 2.87035,5.60674 -2.51211,0.5985 -4.56008,-4.08278 -8.70836,-10.25149 -7.62655,-15.84454 0.32267,-1.81039 -6.69819,-8.15491 -0.41755,-3.02614 3.42798,4.90031 -7.88311,-15.25939 -0.24682,-6.86838 0.38461,-2.99005 -1.57523,-10.30958 2.0144,-8.0058 3.2685,-4.00521 10.77842,-2.19406 12.66831,-1.9079 0.55363,1.10646 12.36963,-9.73057 4.74073,-2.22524 -13.08223,8.59189 19.06661,2.43842 3.77757,5.5186 1.53041,5.43283 17.00266,7.04278 18.1793,16.7019 2.68884,10.14725 3.42821,20.56294 4.02392,30.96083 1.82408,4.7676 -1.49992,14.18985 -4.17776,4.65276 -2.52893,4.42169 4.63918,4.64306 -3.22209,5.18538 l -1.41441,-0.26707 z m -6.27819,-20.45552 c -3.42938,-2.31228 -2.21106,0.23861 0,0 z m 0.83908,-2.08342 c -1.98203,-0.85512 0.50003,0.9924 0,0 z m -0.40911,-1.41533 c -2.4749,-2.85249 -5.36979,2.00436 0,0 z M 151.3704,153.16465 c -1.07522,-1.00275 -0.71689,1.03595 0,0 z m 15.81247,-2.96894 c 2.72655,-4.47269 -4.31109,1.05548 0,3e-5 z m 11.19846,-1.16318 c -1.4187,-1.27175 1.37406,2.09119 0,0 z m 1.51771,-3.82509 c -3.17426,-5.25436 -5.45024,-3.09378 0,0 z m -32.44433,-6.04392 c -0.79961,-1.49947 -0.10504,1.82895 0,0 z m 49.10466,45.91623 c -0.40189,-3.99513 2.1586,-0.99867 0,0 z m -26.87066,-6.4648 c -1.15898,-2.49563 2.33394,1.96335 0,0 z m 27.55126,-0.40131 c 1.02244,-5.88655 4.7859,1.51579 0,0 z M 154.18763,167.2514 c -2.18965,-5.23229 3.80593,2.89941 0,0 z m -17.98486,-9.68159 c 0.31215,-7.93186 2.2329,2.99559 0,0 z m 66.92066,-0.27969 c -0.41851,-3.43487 1.28883,3.43571 0,0 z m -82.88732,-1.73662 c -2.56387,-5.62142 3.78019,-0.21407 0,0 z m 3.46682,-0.26785 c 0.28369,-1.273 0.17997,1.07793 0,0 z m 79.1537,-1.10516 c -2.55789,-6.34969 3.07713,-2.92295 0.82195,0.94201 z m -71.85146,-2.58335 c 0.75183,-6.43503 1.09387,6.86486 1e-5,0 z m 69.77584,-3.32219 c -1.02097,-3.53546 3.55865,0.30988 0,0 z m -0.87511,-5.45892 c 1.5202,-3.37212 -0.7378,2.61947 0,0 z m -1.35469,-4.36443 c -2.36026,-3.18928 3.45614,1.53809 0,0 z m 0.64661,-4.44588 c 1.49129,-1.33245 -0.50123,1.45278 0,0 z m 1.39846,-2.96352 c 2.13327,-6.35139 2.35588,2.51469 0,0 z M 95.00806,117.07735 c -4.332786,-2.00295 -10.902548,-5.93757 -1.44448,-5.28916 6.095403,3.8553 -6.182976,0.67368 1.616527,4.18962 1.234719,-0.11704 0.414043,2.1958 -0.172047,1.09954 z m 2.127039,-2.42715 c -1.067269,-4.0742 3.622201,2.65303 0,0 z m -25.960694,-3.32871 c 1.029708,-0.31723 0.513793,0.48705 0,0 z m 101.224285,-1.14972 c 3.70471,-4.34301 3.80391,0.45008 0,0 z m -3.68735,-0.77899 c -4.30433,0.33478 -3.54101,-0.66066 -3.68505,-1.77206 -8.54958,-5.5291 18.3386,0.62931 3.68505,1.77206 z m 10.57489,-4.43167 c -1.98791,-2.47194 -5.46527,-1.13882 -2.03113,-3.94689 -3.63828,-2.788971 18.9789,3.90656 4.68932,4.35044 l -0.8726,0.23256 z m -81.616787,-3.37447 c 3.558517,-3.154053 16.220807,-2.047809 5.419587,-3.004516 -7.617422,0.447286 -1.1969,-0.327051 -0.26093,-3.108221 -8.331117,-0.473429 -1.69976,-8.990181 -3.353557,-13.010882 2.219637,-5.973016 0.498908,-16.228557 8.485497,-14.337647 5.92867,1.861312 15.52002,4.672157 9.29195,-4.783854 -2.89555,-5.355819 -19.953826,-1.713518 -7.30002,-7.065334 10.90886,-0.685833 -13.35415,-12.689352 -5.7335,-14.963167 4.41721,2.109438 4.70035,-5.20524 10.65204,-0.582934 6.78125,-0.862849 11.2584,3.150729 12.68132,7.502582 4.13787,-5.449488 10.2814,-11.177297 16.26049,-6.553804 12.58978,4.819356 -0.88886,12.060992 -7.94918,15.563243 -3.6905,7.037367 -11.75696,1.922216 -12.11272,10.896025 -0.55412,7.001293 -2.99213,-5.665088 -3.30423,2.817001 1.8943,3.589866 14.36247,-0.777743 13.47067,2.535621 3.90156,4.911355 12.4354,-3.888462 9.86667,5.450258 -3.15595,0.907206 -2.85044,6.691667 1.13774,4.926943 -2.40002,3.728123 6.45207,4.845659 1.24178,5.151382 -5.92426,-7.355946 -8.35192,10.272741 -8.12988,-1.123077 0.0683,-6.759292 -3.13366,-5.654554 -1.84949,0.111041 -3.31705,-5.78243 -5.71061,2.521488 -0.56466,2.267106 -1.36783,4.136386 -1.99962,-0.382496 -3.75224,3.421745 -0.41772,-4.591891 -1.43222,0.288094 -5.08341,-5.645797 -3.11319,-4.711272 -6.51936,-4.630255 -1.40053,-0.682325 1.12967,4.675805 6.9072,6.407204 1.54623,8.688452 -2.01008,5.958569 -8.47991,-1.384017 -11.80709,1.710551 -2.09316,3.660548 -7.09963,1.004605 -3.94215,3.579098 -4.72644,-1.09887 -8.81627,-0.55964 -13.510387,0.24051 z m 12.254347,-5.689028 c -2.9192,-0.110282 -1.55124,-8.210061 -5.43094,-3.566079 -0.73183,7.609158 2.87851,-3.417331 2.2486,3.390717 0.78264,0.200626 2.90954,1.407395 3.18234,0.175362 z m 1.61963,-0.559385 c 1.89709,-4.674474 -2.91856,1.57769 0,0 z m 4.86542,-0.07685 c -1.90441,-1.812258 -1.49645,0.430052 0,0 z m -14.924,-2.020849 c 1.99914,-6.933557 -4.776332,1.916813 0,0 z m 9.1903,-0.629308 c -1.47214,-2.3991 -0.39342,2.573599 0,0 z m 7.62931,0.263834 c 1.90295,-2.964852 -3.67977,1.710205 0,0 z m -1.01259,-4.482192 c -0.73958,-5.581561 -1.82662,4.474088 0,0 z m -9.6,-0.842974 c 2.17924,-5.351984 -4.81498,0.537627 0,0 z m 32.11722,-1.632487 c -1.94319,-1.742191 0.37204,2.666651 0,0 z M 114.82642,84.93645 c 1.22414,-2.152905 1.75433,-13.664515 -0.48345,-4.543304 -2.22186,1.08419 -3.36012,5.615414 0.48345,4.543304 z m 23.90478,-1.227087 c -0.89519,-3.725797 -1.16865,4.103206 0,0 z m -8.94464,-0.712242 c 1.22382,-3.987183 -3.21378,0.351809 0,0 z m -25.82404,-1.293908 c -0.87633,-3.387661 -0.76783,3.607063 0,0 z m 1.25862,-0.752689 c -1.13107,-0.506718 -0.79819,2.617338 0,0 z m 31.89169,-1.556956 c 0.49881,-8.800065 -7.47861,3.57409 0,0 z m -17.90706,0.211951 c 3.6335,-4.100498 -0.96062,-2.489797 -0.92703,-0.790319 -2.04627,-2.129838 -0.89733,3.084468 0.92703,0.790319 z m -8.90226,-1.022273 c 1.59787,-5.579189 -5.42023,0.91609 0,0 z m 16.17426,-1.371621 c -0.80557,-0.532973 -0.65271,0.960684 0,0 z m -9.46793,-2.184493 c 1.45284,-8.300938 -7.24587,2.628886 0,0 z m 7.24023,0.790685 c 0.5424,-2.450456 -2.06439,1.218157 0,0 z m -1.12861,-1.806148 c -0.68981,-0.996342 -0.33825,1.022599 0,0 z m -17.90032,-0.922985 c 1.43401,-3.764947 -1.94621,1.783569 0,0 z m 1.545,-0.776248 c 0.0904,-3.371954 -1.72574,2.756358 0,0 z M 40.052788,101.31162 c 1.17905,-0.92335 0.703299,0.49484 0,0 z M 164.16633,99.831247 c -2.74655,-0.417729 -8.79685,-0.773464 -6.08134,-3.78531 6.27323,2.844713 11.14688,-1.750061 17.2175,3.352802 -3.67825,0.358272 -7.43642,0.409866 -11.13616,0.432508 z m -12.32217,-3.902723 c -0.13343,-1.6438 1.41811,0.608558 0,0 z m 2.16826,-2.083052 c 0.0923,-2.061916 0.95146,0.996528 0,0 z m -2.30316,-2.064483 c -7.87832,-3.379508 3.58828,-12.747268 0.55373,-2.40917 0.19633,0.882268 4.11963,6.592677 -0.55373,2.40917 z m -15.44225,-0.382197 c 0.14022,-2.467191 1.58841,0.307685 0,0 z M 90.677131,43.111336 c 3.900276,-3.016983 2.48923,0.258537 0,0 z m 7.333131,-1.738465 c -9.016808,-1.033835 8.940088,-2.335617 2.246338,0.459496 z"
         style="fill:#6d4a2d;stroke-width:0.2796925" />
      <path
         id="path3826"
         d="m 132.85212,248.37225 c -1.55053,-9.20188 -7.98531,0.67933 -11.24984,-6.56095 -2.08454,4.92208 -9.1292,3.54269 -11.88543,5.24001 -6.63263,-2.46081 -12.673839,-4.9819 -18.82995,-6.67199 -3.599086,3.84114 -4.864683,-3.9618 -5.699134,-5.93017 1.499989,-5.05526 -7.969812,-9.64102 -4.552984,-17.09511 -2.963655,-4.80568 6.188407,-10.62131 6.110344,-17.7622 4.595342,-5.14881 10.926807,-9.13018 15.651674,-12.62275 -2.986196,6.5799 12.47072,-12.69889 2.83273,-4.31995 -0.66474,-8.09247 10.46036,-6.45236 17.16537,-8.04169 5.95042,0.89301 4.88353,-0.34671 5.41164,-3.71607 5.67225,2.16565 -1.44626,-6.30068 3.99374,-2.34369 3.65567,2.21332 5.46879,6.35752 8.33026,2.65351 1.60279,5.90217 9.03645,2.66512 14.2333,5.06276 6.41364,2.55817 5.0968,4.3666 0.38852,5.93518 4.20172,3.53524 11.57055,8.38595 9.10401,10.61905 6.47802,7.88403 -10.17445,-10.11117 -2.45788,-0.0134 -0.55331,1.10041 0.0163,4.35186 2.73082,7.81702 -3.50847,-3.02671 -3.90238,-5.94579 -4.82676,-1.43202 -3.61295,0.97975 4.85787,1.22929 0.17895,3.27296 3.58505,3.00099 10.15948,11.82909 2.54025,3.96189 -6.05128,-1.39996 8.96148,14.49725 2.50289,11.08633 -0.90931,-3.98561 -8.98062,-16.77192 -3.92437,-5.55182 -2.95378,-3.26149 -5.08965,-8.70639 -5.1509,-3.23199 0.94774,11.61178 -1.32552,-9.1164 -2.7042,-0.10858 0.67777,3.66096 6.17848,11.48314 8.43415,13.94653 -3.4417,-3.95228 5.72929,2.85491 1.28371,-4.52802 -3.68248,-9.51159 5.36018,6.28022 4.44273,9.99303 4.56257,5.74964 -4.36822,8.47948 -7.03184,13.39745 -6.24996,2.05665 -10.94247,5.26515 -10.49529,-0.98287 -1.94124,7.94992 -8.41685,-1.33966 -11.31231,1.42566 6.06582,3.70574 4.16008,6.57912 -2.43349,2.63274 -2.37281,1.15169 4.39669,3.66676 -2.09681,3.37966 l -0.68389,0.48946 z m 6.21181,-3.94262 c -1.95318,-3.43329 -2.73716,-0.19944 0,0 z m -41.953872,-3.56487 c -0.734964,-2.86219 -0.975489,2.34485 0,0 z m 43.911722,-1.69466 c 6.01152,1.36914 0.22584,-1.44288 0.59938,-5.41831 3.27003,4.24789 -0.83879,-6.16554 2.97919,0.87991 -0.88421,-4.1287 4.10903,4.4876 2.39522,-2.01523 4.5572,0.93937 -5.43968,-5.46323 -4.97762,-2.19855 -4.92157,-0.57908 -6.87512,7.22011 -3.68455,7.5779 -0.88856,-4.25946 2.18148,3.77185 2.68838,1.17428 z m -11.88153,-2.36037 c -1.40242,-1.60512 0.42837,2.27626 0,0 z m 37.05386,-11.5708 c -1.31816,-4.28636 -0.98634,1.99 0,0 z m -13.30008,-6.55631 c -1.28163,-4.79543 -1.88456,-0.37281 0.17599,1.27922 z m 2.55495,-0.54224 c -4.08899,-12.22735 -0.2698,6.8786 0,0 z m -3.33343,-5.24258 c -2.20507,-1.97238 -0.15599,2.72007 0,0 z m 2.40543,-10.95415 c 0.15074,-2.14064 -1.98615,0.39927 0,0 z m -58.989632,-3.27559 c 1.274894,-5.61831 -3.675989,6.33252 0,0 z m 63.670442,-1.45184 c -0.66385,-1.46755 -0.24204,1.47737 0,0 z m -1.46665,-1.88792 c -3.30128,-1.92609 -0.4861,1.32737 0,0 z m -59.222905,-3.01567 c 0.923696,-3.39231 -2.042199,3.24099 0,0 z m 47.141065,-3.09449 c -0.55299,-2.61394 -1.57424,0.92116 0,0 z m -1.97444,-4.44824 c 2.62106,-3.30465 0.39325,-4.64362 -2.54901,-2.38731 0.45547,1.31939 0.11894,4.22576 2.54901,2.38731 z m 8.81031,-2.06737 c -3.5092,-3.54563 -5.29727,0.68686 0,0 z m -20.03361,-0.72773 c -2.95457,-4.50581 -6.20608,0.26794 0,0 z m 10.34173,63.38293 c -2.3553,-5.23528 5.17857,3.22696 0,0 z m 27.23665,-22.47731 c 0.70461,-3.65927 -8.46275,-16.50464 -0.85335,-8.45579 2.17682,0.70135 1.97703,10.53106 0.85335,8.45579 z m -1.3226,-1.89034 c -0.40239,-1.50974 1.26971,1.55722 0,0 z M 68.022038,216.515 c -3.972868,-5.21483 -7.729498,-11.34624 -12.177965,-17.72663 -5.090044,-4.47777 -5.386461,-6.77305 -0.221205,-4.33632 1.420897,5.08871 6.345005,6.31445 8.322277,11.66363 3.660126,2.77752 1.834489,7.28853 4.902533,10.37812 0.248817,0.89579 -1.032169,0.91259 -0.82564,0.0212 z m 98.184912,-8.40035 c -3.45854,-6.86706 4.28148,6.68639 0,0 z m -83.920594,-0.65867 c 0.82063,-2.05175 1.629991,-0.68201 0,0 z m 110.758234,-8.12556 c 0.6331,-2.30129 0.94069,1.92855 0,0 z M 70.655225,194.42368 c 2.2692,-7.99181 5.562537,-2.71073 0,0 z m -20.641161,-4.32225 c -0.747496,-5.56392 2.696932,4.18882 -2e-6,0 z m 19.47636,-1.89291 c -4.468229,-2.61893 5.428354,-6.45949 2.788089,-9.73678 -3.811951,-1.37202 -7.798057,6.16141 -5.510461,-1.89105 -3.605994,2.30607 -10.149234,5.4358 -4.779827,-1.50097 6.071767,-7.88787 -4.297433,1.8971 -3.389756,-3.96204 -5.735794,6.03406 -4.69567,-2.30604 -2.704002,-3.94995 6.61439,-6.90958 5.969952,-13.13926 10.41875,-19.82151 1.973945,-7.93412 7.005088,-12.59704 15.200108,-16.33796 1.399046,-0.44358 7.433385,0.66782 10.2582,-1.80965 2.630796,-0.26497 10.044225,-1.67429 11.072225,1.03127 1.07125,-7.1064 11.33346,3.87263 9.73992,7.8863 -0.32891,6.28426 2.18227,13.99069 -0.3989,15.35008 3.70407,4.67447 -2.945,4.90364 0.0986,7.98147 -4.93892,8.22782 -17.429637,6.4594 -23.942077,12.05958 -6.325018,4.63032 -12.052103,11.62639 -18.850879,14.70121 z m 32.374406,-39.87621 c -3.455329,-5.83313 -3.724642,2.1297 0,0 z m -53.604443,37.68415 c -0.155943,-2.49657 1.951832,1.81811 0,0 z m 29.550889,0.0121 c 1.31109,-1.59102 0.216108,1.36997 0,0 z m 21.186706,-2.13904 c 0.640892,-4.34616 5.782118,-1.11318 0,0 z m -42.163644,-8.55029 c 2.15177,-3.02569 2.495201,0.0655 0,0 z m 31.884945,-0.30977 c 2.07385,-3.43266 3.521555,0.63586 0,0 z m 90.197877,-8.49906 c -5.47553,-4.09376 4.50212,-0.7331 0,0 z m -14.6809,-0.48673 c -8.27621,-0.24783 -11.40312,-10.23327 -17.14893,-13.33282 -5.89282,2.67383 0.63595,-8.92676 1.52608,-0.38524 2.45646,-4.48832 -3.90626,-4.96396 1.20096,-9.78236 2.26182,-3.58959 3.20798,-7.77572 6.56958,-9.65993 -1.30177,6.87344 13.76877,0.3542 18.18822,6.81211 -5.72434,-2.54157 2.33144,5.86576 0.25505,10.06911 3.68949,3.82488 4.8384,10.93218 -1.56796,9.82986 -2.00068,3.06496 -4.61139,7.57521 -9.023,6.44927 z m -1.67816,-5.31077 c -0.42324,-3.70217 -3.19769,1.53738 0,0 z m -5.23208,-2.70905 c -0.4737,-3.83268 -2.90806,0.46012 0,0 z m 14.46947,-1.57277 c 2.19148,-6.0855 -3.02392,4.19632 0,0 z m -20.20053,-3.18372 c -1.55266,-3.01696 -1.67443,2.51482 0,0 z m 22.55079,-1.74913 c -0.51236,-2.69544 -3.39731,1.4399 0,0 z m -6.29065,-0.43056 c 1.68986,-7.92616 -6.16898,1.28623 0,0 z m -13.2676,-2.88752 c 3.23921,-10.5113 -5.34599,6.42277 0,0 z m -1.64383,-4.85966 c -1.21276,-4.81932 -1.182,3.34118 0,0 z m 3.84857,-0.37474 c 1.66764,-5.02565 -3.08904,3.1359 0,0 z m 1.73569,-2.59493 c -1.2434,-0.0334 -0.67629,1.44813 0,0 z m 2.49186,-1.19075 c -0.7419,-1.0787 -1.39521,1.01531 0,0 z M 47.115024,164.44681 c -2.181938,-3.99331 -4.335421,-16.54279 -0.01233,-6.74655 -1.902418,4.26515 7.030429,3.90694 0.01233,6.74655 z m 129.847246,-1.42047 c -3.9932,-5.15698 5.11909,0.14343 0,0 z m -28.75814,-1.6538 c -1.72974,-5.49733 2.00964,-5.09796 0,0 z m 4.28504,-1.48543 c 1.18995,-2.00305 1.36386,0.83546 0,0 z M 37.154718,156.9405 c -7.859947,-5.49934 -10.09272,-15.94259 -15.503593,-22.81186 5.906291,-5.71754 -7.383755,-5.25346 -3.761748,-12.27298 -3.715241,-9.60749 -4.680559,-19.94434 -7.727933,-29.789691 -2.5997611,-7.180172 3.687935,-14.654561 8.416428,-6.268646 6.446615,1.797045 3.219641,5.571468 2.935308,6.647499 7.159354,-2.124945 11.328551,-6.530639 17.560684,-0.282218 -3.372215,5.319414 -1.433148,10.847986 -3.106788,15.497166 -0.84923,5.80356 4.278587,7.50496 1.463702,12.72338 5.540331,3.2056 0.146822,14.12351 4.951105,19.27577 4.328758,6.32584 -4.803632,12.41276 -5.227165,17.28158 z M 36.265861,93.013873 c -1.288666,-2.43614 -4.235948,1.79112 0,0 z m 13.388536,38.450947 c 2.47779,-4.64935 14.220198,-4.56718 4.674709,-0.94883 -1.71938,-1.35295 -3.069896,2.37072 -4.674709,0.94883 z m 35.289037,-1.23495 c 0.347317,-1.10266 1.003633,1.06484 0,0 z m -34.533129,-0.89584 c -0.02005,-2.85388 15.617009,-11.72639 10.285095,-6.68616 -2.637167,3.21395 -8.510453,3.83712 -10.285095,6.68616 z M 119.64632,94.267383 c -2.11618,-3.354966 2.95058,-6.020527 4.71606,-1.193212 2.35679,1.208978 -3.84688,1.703143 -4.71606,1.193212 z m -2.68805,-3.346314 c -0.44474,-2.329685 2.49811,0.701251 0,0 z m -8.9402,-0.100485 c -3.41624,-3.258533 -11.639954,0.43684 -7.37021,-5.533291 -0.37742,-4.380246 -0.23601,-13.737606 3.41397,-15.938915 4.38194,0.591111 14.43126,-1.011593 9.40238,5.819893 -0.95293,3.293358 -0.85829,9.837104 -4.58396,6.804873 7.24509,4.021836 -7.76912,-0.380365 -2.45128,6.50481 1.18104,0.449496 5.58491,3.510238 1.5891,2.34263 z M 105.071,82.643365 c 2.35132,-7.718818 -6.42245,2.50793 0,0 z m 5.72369,-3.774791 c 1.49829,-9.441888 -8.13898,2.244888 0,0 z m -3.88147,-5.504058 c 1.33672,-8.159785 -6.69737,4.415527 1e-5,-2e-6 z m 18.03169,17.155037 c -7.45015,-8.431581 5.03834,-0.157538 0,0 z m -12.34382,-0.128141 c -10.53566,-3.502322 1.71621,-6.096227 0,0 z m 5.64617,-1.422194 c -1.33773,-2.216765 2.5731,1.630497 0,0 z m 2.6926,-0.469472 c -1.3157,-3.183583 2.55296,1.322182 0,0 z m 6.33982,-0.509715 c -8.91374,-6.035159 -0.68558,-18.297685 8.42794,-12.582484 -5.19896,0.945647 2.0205,11.827562 -4.2757,6.758504 0.83593,4.393715 -4.39863,-8.393092 -3.45345,0.493084 3.65866,2.767615 2.19289,3.22246 1.03118,3.61821 1.22274,2.703408 -3.86805,-2.246621 -0.96855,2.424163 z m -0.48118,-8.545573 c 3.57317,-7.83445 -5.78821,0.575384 0,0 z m 5.2237,-1.889883 c -0.80851,-1.736312 -1.33176,1.869655 0,0 z M 118.50653,87.1492 c -6.33197,-2.845861 3.05299,-7.543227 0.30269,-4.778636 -3.44768,-2.198131 4.28083,6.071684 -0.30269,4.778636 z M 118.087,84.360297 c -1.1894,-2.96296 -0.38372,2.391519 0,0 z m 21.42491,-2.146154 c 0.40398,-8.43409 2.67129,-1.263715 -0.068,1.346473 z M 121.3416,81.665079 c 0.55077,-3.730898 -2.35034,-7.633373 -2.49044,-9.109087 5.10418,-0.673445 3.8996,9.913152 2.49044,9.109087 z m -3.81399,-5.136172 c 0.65074,-2.908547 0.65074,2.908544 0,0 z m 22.93479,-1.538309 c 0.66385,-1.467544 0.24204,1.477362 0,0 z m -16.77531,-1.315587 c -1.03944,-3.717648 2.98215,3.119585 0,0 z"
         style="fill:#512f1a;stroke-width:0.2796925" />
      <path
         id="path3828"
         d="m 103.73317,238.92209 c -1.3193,-3.74801 -4.586822,1.08881 -5.366283,-4.08725 -6.687963,4.15271 0.316979,-15.51482 -3.703542,-3.90915 0.380007,4.92387 -7.616548,5.51368 -1.981804,1.9513 -2.757143,-8.10156 5.987717,-7.8893 6.940354,-11.89702 1.546525,-4.42772 4.484705,-11.79371 -2.805371,-5.42757 -5.420636,-2.31366 6.833996,-4.41234 4.663026,-9.24619 -1.06023,-3.90624 -5.478471,-4.60043 -2.9795,-0.82047 -1.663977,4.77653 -7.046026,-2.74088 -0.883779,-6.32063 0.444984,5.84605 10.229689,-7.34769 2.638219,-1.15753 3.19864,-7.62443 8.45937,-18.26115 17.40013,-19.49701 2.61109,5.19884 12.82637,5.27685 17.63754,9.01147 -0.57571,-3.21316 5.09231,2.93982 10.16342,3.37709 4.09092,6.53217 0.75382,-9.42653 5.91477,-0.77977 3.38531,4.88102 -0.23528,9.4998 0.0223,12.55083 -1.5065,6.77002 -2.43067,8.07085 -5.87346,11.91271 2.88051,2.36214 4.1934,7.16245 4.74383,4.83617 5.99492,6.46504 1.82404,-5.43269 3.06101,-2.48904 0.95626,4.09168 3.08569,7.51429 4.29131,3.02784 2.6156,1.99274 5.88388,11.36491 6.87906,5.19814 3.55154,6.0333 -8.62938,18.314 -3.62946,8.82451 2.95967,-4.18109 -3.09707,-0.2782 -3.62093,0.12521 -3.67017,4.21421 -11.17122,-10.08648 -2.18167,-1.7985 0.11599,-5.16523 -10.27783,-8.0472 -15.26968,-2.83716 -5.33278,1.54563 -11.58004,4.01477 -16.46137,0.12174 -1.94302,4.26594 -4.92647,2.8746 -5.39792,0.52885 0.47229,5.197 -2.14693,5.49448 -4.78358,7.37681 -0.64132,1.27701 -5.42324,2.52259 -4.80441,-2.23497 -1.38722,0.76103 -2.39304,6.27763 -4.61219,3.65959 z m 0.64889,-2.44332 c -1.75296,-2.00893 -0.67706,3.1237 0,0 z m 43.57116,-17.26391 c -3.52727,-6.96417 -7.68697,-4.50284 0,0 z m -1.50474,-14.19694 c -0.83342,-2.10908 -2.97002,3.3858 0,0 z m 3.52346,-3.64056 c -1.19138,-2.37394 -1.11749,3.56523 0,0 z m -24.89263,35.99124 c 0.10504,-1.82895 0.79961,1.49947 0,0 z m 26.64653,-1.58395 c 1.02971,-0.31723 0.5138,0.48706 0,0 z m 4.72281,-17.82009 c -2.29321,-4.66711 1.66424,1.5342 0,0 z M 82.286356,215.3772 c -0.603555,-6.49585 15.433896,-14.32177 6.293081,-6.15836 -8.906154,6.51095 14.232953,-7.7937 2.510196,1.49444 -2.485743,3.18163 -5.639429,2.74293 -8.803277,4.66392 z m 6.153235,-3.51014 c -0.970724,-0.48213 -0.461482,1.30581 0,0 z m 9.509545,-1.14916 c 0.905637,-2.45579 0.491879,1.43661 0,0 z m 60.063964,-7.231 c -1.835,-2.08717 2.8639,1.18248 0,0 z m -59.224887,-4.43617 c 0.489362,-1.89721 0.851671,1.5094 0,0 z m 59.714347,-10.92452 c 1.52873,-1.02394 1.04057,1.05032 0,0 z m -25.59186,-2.09769 c 1.0719,-1.50508 1.0719,1.50508 0,0 z m 0.19643,-7.63248 c -6.64208,-9.72443 5.93702,-1.5407 0,0 z m -4.38274,-1.72024 c -0.33023,-2.58835 2.12571,2.40708 0,0 z m -35.255576,-8.55392 c -7.721004,-0.0585 -11.700158,-7.17005 -15.076438,-14.06796 -3.449268,-2.12065 -6.04561,-0.37549 -6.034777,1.77879 -3.653274,2.02008 3.31795,2.99397 -3.714616,3.39851 -11.056875,5.76219 0.512394,-12.75343 3.922686,-16.02315 6.858368,-5.46016 10.651179,-12.54093 21.345641,-10.73783 6.68469,-0.97828 10.72288,2.77852 13.2594,5.21973 2.04378,6.62932 5.17417,11.98594 2.59787,18.79978 -1.22613,3.29052 -4.02472,10.59622 -5.10638,5.08451 -2.02126,-3.3997 -1.19677,6.63197 -5.181787,1.45223 -3.269096,0.72896 -3.868441,3.16109 -6.011599,5.09539 z m 14.758536,-9.292 c -2.2681,-3.3377 -1.03973,1.94468 0,0 z m -38.701601,-0.68674 c -1.716603,-1.22393 -1.306311,2.40903 0,0 z m 32.304641,-7.47765 c 1.54647,-8.07128 -5.889853,-3.16674 -0.79246,1.38039 z m -12.154589,-3.97002 c -1.140788,1.08877 -0.615401,0.57742 0,0 z m 75.723939,17.83547 c -5.04955,-0.59502 -3.32908,-2.69205 -0.0242,-3.60531 -4.64744,-1.43085 -9.4159,-4.16325 -12.04687,-8.76611 1.11154,-4.87764 5.54702,-11.44239 7.57359,-13.78497 -10.82829,2.82504 7.58858,-6.47316 10.37558,1.56551 6.01881,6.14939 -2.20137,7.38737 0.1534,14.36184 -3.47333,7.17145 1.71601,2.29028 2.3353,-1.64239 0.98697,5.6543 -3.85092,11.49517 -8.36678,11.87143 z m 2.69627,-13.10038 c 1.88821,-9.82321 -7.30183,1.16143 0,0 z m -0.85283,-12.32046 c -5.51419,-1.81409 -3.94851,0.8452 0,0 z m -9.09373,24.07803 c -1.33712,-2.94371 1.79213,0.66471 0,0 z m 2.17111,-0.63474 c -4.00141,-4.57958 1.65259,-0.29511 0,0 z m -7.94613,-5.64834 c 0.51553,-3.72541 4.63541,2.05666 0,0 z m -0.69751,-1.76597 c -1.15656,-3.27849 2.36286,0.74354 0,0 z m -6.41271,-2.71137 c 1.0893,-1.50208 0.20163,1.44883 0,0 z m 6.17522,-6.01853 c -0.51555,-3.99127 3.11295,1.82841 0,0 z M 34.822963,142.92772 c -3.981482,-2.89304 -1.05758,-9.84193 -4.57592,-12.69785 -0.12935,-5.37218 6.809934,2.82893 6.882167,6.9668 1.470359,1.41635 4.4588,6.1849 -1.36788,6.34333 z M 155.02382,141.2987 c -0.36381,-1.78917 1.67736,0.54834 0,0 z m -77.492237,-3.37729 c 1.529045,-1.54391 -0.879207,1.50249 0,0 z m -43.63203,-33.84279 c 0.693448,-1.4737 0.693448,1.4737 0,0 z m -3.584273,-3.09984 c -8.215744,-6.213747 6.057094,-8.40027 1.879287,-0.15166 l -0.914064,0.56087 z m 89.79949,-7.294173 c -0.99633,-4.545144 4.96741,1.293596 0,0 z M 28.095934,93.404914 c -1.24154,-1.845462 3.701736,0.954911 0,0 z M 124.28439,77.927369 c 0.24477,-1.26069 0.24477,1.26069 0,0 z"
         style="fill:#1f120d;stroke-width:0.2796925" />
      <path
         id="path3857-9"
         d="m 119.926,94.017909 c 0.5771,-4.470767 -11.95294,-1.641734 -17.95245,-4.186603 -5.411001,-0.225642 0.017,-8.409298 -0.75572,-12.21623 -2.489292,-10.624654 9.92579,-10.78219 15.86339,-6.384185 -5.14789,1.319929 1.05314,8.708721 -4.8159,12.175932 4.02221,0.891714 3.04734,11.849048 3.47668,2.637729 0.0602,-6.172883 0.52113,-10.125293 3.66603,-2.694667 1.98347,0.905831 -3.15362,-4.931964 2.13534,-0.475242 -1.57448,6.603041 5.69441,2.084599 5.99968,9.53647 5.82958,3.287485 -4.40342,-2.435322 -3.85326,-2.398306 4.04178,5.36948 0.35505,3.858878 -3.76379,4.005102 z m -2.45434,-4.648867 c 1.87473,-6.189878 -3.82081,-0.435809 0,0 z m 4.74661,-0.276197 c -1.01634,-1.467279 -0.94036,1.244547 0,0 z m 0.57484,-0.749777 c -2.38034,-2.671595 1.55901,2.798867 0,0 z M 108.2098,87.418379 c 2.48939,-7.643646 -6.89931,1.115331 0,0 z m -2.99536,-5.180587 c 2.00868,-6.395511 -5.597268,1.885189 0,0 z m 5.58024,-3.898385 c 0.95307,-7.360389 -6.23187,1.934667 0,0 z m -3.9157,-5.034465 c 1.9485,-7.673472 -5.93987,2.867333 0,0 z m 24.23314,16.522233 c -8.97127,-1.416408 -10.41577,-18.264258 1.13034,-15.902454 4.82931,3.292784 14.62631,-3.024138 10.9002,5.242047 -2.03822,-2.810626 -1.43873,13.627269 -4.07935,2.893801 -3.79838,-3.33116 -1.18213,5.445081 -6.82634,4.548944 -1.09277,0.756267 6.31071,8.635722 -1.12485,3.217662 z m -0.43897,-7.988946 c -2.6074,-5.852145 -3.16863,5.885931 0,0 z m 6.53505,-2.222786 c 2.74834,-7.533196 -8.0434,0.774462 0,0 z m -10.13143,-0.933902 c 0.99497,-6.897266 -4.16829,2.269453 0,0 z m 11.43315,11.453587 c -0.57361,-5.224289 2.48272,1.586447 0,0 z m 4.21208,-3.903305 c 0.28369,-1.273018 0.17998,1.07793 0,0 z m -0.12122,-1.416547 c 1.03154,-2.914759 2.67789,1.103284 0,0 z m -21.00224,-3.142723 c -1.06695,-3.647481 0.23753,-7.813531 -4.63216,-4.277158 -0.87667,-6.569937 2.8187,-8.466926 5.75507,-2.126089 0.27255,0.981546 0.56329,8.921978 -1.12291,6.403247 z m 2.78152,-7.565019 c -4.31556,-3.91097 5.98183,-0.309401 0,0 z"
         style="display:inline;fill:#8c1e21;stroke-width:0.2796925" />
    </g>
  </g>
</svg>
